<svg xmlns="http://www.w3.org/2000/svg" viewBox="0 0 180 180" role="img" aria-label="Archivo Excel organizado para descargar">
  <defs>
    <linearGradient id="bgExcel" x1="22" y1="24" x2="156" y2="158" gradientUnits="userSpaceOnUse">
      <stop stop-color="#F0FDF4"/>
      <stop offset="1" stop-color="#DCFCE7"/>
    </linearGradient>
    <linearGradient id="downloadExcel" x1="116" y1="96" x2="157" y2="142" gradientUnits="userSpaceOnUse">
      <stop stop-color="#2563EB"/>
      <stop offset="1" stop-color="#06B6D4"/>
    </linearGradient>
  </defs>
  <rect width="180" height="180" rx="32" fill="url(#bgExcel)"/>
  <rect x="42" y="34" width="96" height="103" rx="10" fill="#FFFFFF" stroke="#107C41" stroke-width="6"/>
  <rect x="42" y="34" width="96" height="27" rx="10" fill="#107C41"/>
  <path d="M45 59h90" stroke="#107C41" stroke-width="5"/>
  <path d="M66 62v73M90 62v73M114 62v73M43 84h93M43 108h93" stroke="#BBF7D0" stroke-width="4"/>
  <rect x="58" y="46" width="32" height="32" rx="8" fill="#FFFFFF"/>
  <path d="m66 54 18 18M84 54 66 72" stroke="#107C41" stroke-width="6" stroke-linecap="round"/>
  <rect x="68" y="89" width="17" height="10" rx="3" fill="#DCFCE7"/>
  <rect x="93" y="89" width="17" height="10" rx="3" fill="#DCFCE7"/>
  <rect x="68" y="113" width="17" height="10" rx="3" fill="#DCFCE7"/>
  <rect x="93" y="113" width="17" height="10" rx="3" fill="#DCFCE7"/>
  <circle cx="132" cy="124" r="26" fill="url(#downloadExcel)"/>
  <path d="M132 107v28M121 126l11 11 11-11" fill="none" stroke="#FFFFFF" stroke-width="7" stroke-linecap="round" stroke-linejoin="round"/>
  <rect x="57" y="146" width="91" height="11" rx="5" fill="#0E7490"/>
  <path d="M78 25h27M116 25h12" stroke="#F59E0B" stroke-width="5" stroke-linecap="round"/>
</svg>
