<svg xmlns="http://www.w3.org/2000/svg" viewBox="0 0 220 220" role="img" aria-label="Reporte Excel descargable">
  <defs>
    <linearGradient id="eBg" x1="20" y1="18" x2="201" y2="205" gradientUnits="userSpaceOnUse">
      <stop stop-color="#F0FDF4"/>
      <stop offset=".56" stop-color="#DCFCE7"/>
      <stop offset="1" stop-color="#D1FAE5"/>
    </linearGradient>
    <linearGradient id="eDown" x1="142" y1="128" x2="189" y2="178" gradientUnits="userSpaceOnUse">
      <stop stop-color="#2563EB"/>
      <stop offset="1" stop-color="#06B6D4"/>
    </linearGradient>
    <filter id="eShadow" x="-20%" y="-20%" width="140%" height="150%">
      <feDropShadow dx="0" dy="12" stdDeviation="9" flood-color="#0D1B2A" flood-opacity=".15"/>
    </filter>
  </defs>
  <rect width="220" height="220" rx="38" fill="url(#eBg)"/>
  <g filter="url(#eShadow)">
    <rect x="42" y="32" width="126" height="138" rx="14" fill="#FFFFFF" stroke="#107C41" stroke-width="7"/>
    <rect x="42" y="32" width="126" height="34" rx="14" fill="#107C41"/>
    <path d="M45 64h120" stroke="#107C41" stroke-width="6"/>
    <rect x="58" y="44" width="40" height="40" rx="10" fill="#FFFFFF"/>
    <path d="m68 55 20 20M88 55 68 75" stroke="#107C41" stroke-width="7" stroke-linecap="round"/>
    <path d="M78 68v96M111 68v96M141 68v96M44 96h121M44 126h121" stroke="#BBF7D0" stroke-width="5"/>
    <rect x="86" y="105" width="18" height="12" rx="4" fill="#DCFCE7"/>
    <rect x="118" y="105" width="18" height="12" rx="4" fill="#DCFCE7"/>
    <rect x="86" y="135" width="18" height="12" rx="4" fill="#DCFCE7"/>
    <rect x="118" y="135" width="18" height="12" rx="4" fill="#DCFCE7"/>
  </g>
  <g filter="url(#eShadow)">
    <circle cx="166" cy="155" r="33" fill="url(#eDown)"/>
    <path d="M166 135v34M153 158l13 13 13-13" fill="none" stroke="#FFFFFF" stroke-width="8" stroke-linecap="round" stroke-linejoin="round"/>
  </g>
  <rect x="65" y="182" width="119" height="14" rx="7" fill="#0E7490"/>
  <path d="M55 23h31M102 23h14M153 24h23" stroke="#F59E0B" stroke-width="6" stroke-linecap="round"/>
</svg>
