<svg xmlns="http://www.w3.org/2000/svg" viewBox="0 0 180 180" role="img" aria-label="OCR e IA extrayendo datos">
  <defs>
    <linearGradient id="bgExtract" x1="24" y1="20" x2="160" y2="158" gradientUnits="userSpaceOnUse">
      <stop stop-color="#F8FAFC"/>
      <stop offset="1" stop-color="#DBEAFE"/>
    </linearGradient>
    <linearGradient id="chipExtract" x1="96" y1="47" x2="145" y2="94" gradientUnits="userSpaceOnUse">
      <stop stop-color="#2563EB"/>
      <stop offset="1" stop-color="#06B6D4"/>
    </linearGradient>
  </defs>
  <rect width="180" height="180" rx="32" fill="url(#bgExtract)"/>
  <rect x="33" y="34" width="57" height="80" rx="8" fill="#FFFFFF" stroke="#0E7490" stroke-width="5"/>
  <path d="M69 35v21h20" fill="#E0F2FE" stroke="#0E7490" stroke-width="5" stroke-linejoin="round"/>
  <path d="M45 65h28M45 80h31M45 95h20" stroke="#94A3B8" stroke-width="5" stroke-linecap="round"/>
  <rect x="103" y="47" width="47" height="47" rx="13" fill="url(#chipExtract)"/>
  <path d="M116 78 122 62h8l6 16M119 73h14M140 62v16" stroke="#FFFFFF" stroke-width="4" stroke-linecap="round" stroke-linejoin="round"/>
  <path d="M91 65h12M91 80h12M91 95h23" stroke="#06B6D4" stroke-width="5" stroke-linecap="round"/>
  <rect x="41" y="126" width="98" height="22" rx="9" fill="#0E7490"/>
  <rect x="54" y="118" width="73" height="20" rx="8" fill="#F59E0B"/>
  <circle cx="70" cy="128" r="4" fill="#FFFFFF"/>
  <circle cx="90" cy="128" r="4" fill="#FFFFFF"/>
  <circle cx="110" cy="128" r="4" fill="#FFFFFF"/>
  <path d="M126 99c18 8 24 21 18 39" fill="none" stroke="#D81159" stroke-width="5" stroke-linecap="round"/>
  <path d="m136 131 8 8 9-7" fill="none" stroke="#D81159" stroke-width="5" stroke-linecap="round" stroke-linejoin="round"/>
</svg>
