<svg xmlns="http://www.w3.org/2000/svg" viewBox="0 0 220 220" role="img" aria-label="Extracción de datos con OCR e IA">
  <defs>
    <linearGradient id="oBg" x1="24" y1="16" x2="198" y2="205" gradientUnits="userSpaceOnUse">
      <stop stop-color="#F8FAFC"/>
      <stop offset=".55" stop-color="#E0F2FE"/>
      <stop offset="1" stop-color="#DBEAFE"/>
    </linearGradient>
    <linearGradient id="oChip" x1="132" y1="42" x2="186" y2="101" gradientUnits="userSpaceOnUse">
      <stop stop-color="#2563EB"/>
      <stop offset="1" stop-color="#06B6D4"/>
    </linearGradient>
    <filter id="oShadow" x="-20%" y="-20%" width="140%" height="150%">
      <feDropShadow dx="0" dy="12" stdDeviation="9" flood-color="#0D1B2A" flood-opacity=".16"/>
    </filter>
  </defs>
  <rect width="220" height="220" rx="38" fill="url(#oBg)"/>
  <g filter="url(#oShadow)">
    <rect x="36" y="38" width="78" height="112" rx="13" fill="#FFFFFF" stroke="#0E7490" stroke-width="7"/>
    <path d="M88 40v28h25" fill="#E0F2FE" stroke="#0E7490" stroke-width="7" stroke-linejoin="round"/>
    <rect x="53" y="75" width="39" height="10" rx="4" fill="#DBEAFE"/>
    <path d="M53 101h43M53 118h35M53 135h25" stroke="#94A3B8" stroke-width="6" stroke-linecap="round"/>
    <rect x="49" y="91" width="51" height="51" rx="8" fill="none" stroke="#12D6C7" stroke-width="4" stroke-dasharray="7 7"/>
  </g>
  <path d="M116 80h25M116 107h36M116 134h23" stroke="#06B6D4" stroke-width="7" stroke-linecap="round"/>
  <g filter="url(#oShadow)">
    <rect x="143" y="47" width="52" height="52" rx="15" fill="url(#oChip)"/>
    <path d="M157 83 164 62h10l8 21M161 77h18M186 62v21" stroke="#FFFFFF" stroke-width="5" stroke-linecap="round" stroke-linejoin="round"/>
  </g>
  <g filter="url(#oShadow)">
    <rect x="66" y="162" width="104" height="24" rx="10" fill="#0E7490"/>
    <rect x="82" y="149" width="72" height="24" rx="10" fill="#F59E0B"/>
    <circle cx="101" cy="161" r="5" fill="#FFFFFF"/>
    <circle cx="118" cy="161" r="5" fill="#FFFFFF"/>
    <circle cx="135" cy="161" r="5" fill="#FFFFFF"/>
  </g>
  <path d="M173 111c18 10 25 25 19 46" fill="none" stroke="#D81159" stroke-width="7" stroke-linecap="round"/>
  <path d="m180 149 12 10 11-12" fill="none" stroke="#D81159" stroke-width="7" stroke-linecap="round" stroke-linejoin="round"/>
</svg>
