<svg xmlns="http://www.w3.org/2000/svg" viewBox="0 0 512 512" role="img" aria-label="Plan regular">
  <rect width="512" height="512" fill="none"/>
  <rect x="102" y="184" width="308" height="174" rx="30" fill="#FFB703"/>
  <rect x="102" y="184" width="64" height="174" rx="22" fill="#D81159"/>
  <rect x="346" y="184" width="64" height="174" rx="22" fill="#0EA5C6"/>
  <rect x="78" y="350" width="356" height="40" rx="18" fill="#0F5D7F"/>
  <circle cx="256" cy="120" r="58" fill="#2563EB"/>
  <path d="M256 84v72M282 101c-8-16-40-17-47 2-9 28 55 22 45 50-7 21-43 17-51-1" fill="none" stroke="#fff" stroke-width="13" stroke-linecap="round"/>
  <path d="M256 178v90" stroke="#0F5D7F" stroke-width="18" stroke-linecap="round"/>
  <rect x="190" y="226" width="36" height="36" rx="10" fill="#fff"/>
  <rect x="238" y="226" width="36" height="36" rx="10" fill="#fff"/>
  <rect x="286" y="226" width="36" height="36" rx="10" fill="#fff"/>
  <rect x="214" y="284" width="84" height="32" rx="14" fill="#F4F6F8"/>
</svg>
